<?xml version="1.0" encoding="UTF-8"?>
<svg width="99px" height="27px" viewBox="0 0 99 27" version="1.1" xmlns="http://www.w3.org/2000/svg" xmlns:xlink="http://www.w3.org/1999/xlink">
    <!-- Generator: Sketch 52.2 (67145) - http://www.bohemiancoding.com/sketch -->
    <title>logo-volaris</title>
    <desc>Created with Sketch.</desc>
    <defs>
        <polygon id="path-1" points="0 17.0768137 68.348892 17.0768137 68.348892 0.0460718203 0 0.0460718203"></polygon>
        <polygon id="path-3" points="0 17.0768137 68.348892 17.0768137 68.348892 0.0460718203 0 0.0460718203"></polygon>
        <polygon id="path-5" points="0 17.0768137 68.348892 17.0768137 68.348892 0.0460718203 0 0.0460718203"></polygon>
        <polygon id="path-7" points="0 17.0768137 68.348892 17.0768137 68.348892 0.0460718203 0 0.0460718203"></polygon>
        <polygon id="path-9" points="0 17.0768137 68.348892 17.0768137 68.348892 0.0460718203 0 0.0460718203"></polygon>
        <polygon id="path-11" points="0 17.0768137 68.348892 17.0768137 68.348892 0.0460718203 0 0.0460718203"></polygon>
    </defs>
    <g id="Desktop" stroke="none" stroke-width="1" fill="none" fill-rule="evenodd">
        <g id="00_Landing-page" transform="translate(-119.000000, -12.000000)">
            <g id="Header">
                <g id="logo-volaris" transform="translate(119.000000, 12.000000)">
                    <g id="logo" transform="translate(73.528404, 0.000000)" fill-rule="nonzero">
                        <polygon id="Fill-1" fill="#373737" points="10.6218672 3.72849764 14.1625272 3.72849764 14.1625272 0 10.6218672 0"></polygon>
                        <polygon id="Fill-2" fill="#6CABE7" points="10.6218672 7.45723315 14.1625272 7.45723315 14.1625272 3.72849764 10.6218672 3.72849764"></polygon>
                        <polygon id="Fill-3" fill="#A9C7EC" points="10.6218672 11.1851361 14.1625272 11.1851361 14.1625272 7.45723315 10.6218672 7.45723315"></polygon>
                        <polygon id="Fill-4" fill="#6CABE7" points="7.08120712 11.1851361 10.6218672 11.1851361 10.6218672 7.45723315 7.08120712 7.45723315"></polygon>
                        <polygon id="Fill-5" fill="#A12885" points="7.08120712 18.6423693 10.6218672 18.6423693 10.6218672 14.9138716 7.08120712 14.9138716"></polygon>
                        <polygon id="Fill-6" fill="#6CABE7" points="14.1624142 11.1851361 17.7029613 11.1851361 17.7029613 7.45723315 14.1624142 7.45723315"></polygon>
                        <polygon id="Fill-7" fill="#62BD19" points="14.1624142 18.6423693 17.7029613 18.6423693 17.7029613 14.9138716 14.1624142 14.9138716"></polygon>
                        <polygon id="Fill-8" fill="#FFFFFF" points="10.6218672 14.9138716 14.1625272 14.9138716 14.1625272 11.1850172 10.6218672 11.1850172"></polygon>
                        <polygon id="Fill-9" fill="#D99CE1" points="10.6218672 18.6423693 14.1625272 18.6423693 14.1625272 14.9138716 10.6218672 14.9138716"></polygon>
                        <polygon id="Fill-10" fill="#A12885" points="10.6218672 22.370748 14.1625272 22.370748 14.1625272 18.6422503 10.6218672 18.6422503"></polygon>
                        <polygon id="Fill-11" fill="#373737" points="10.6218672 26.0988888 14.1625272 26.0988888 14.1625272 22.370748 10.6218672 22.370748"></polygon>
                        <polygon id="Fill-12" fill="#373737" points="0 14.9138716 3.54054709 14.9138716 3.54054709 11.1850172 0 11.1850172"></polygon>
                        <polygon id="Fill-13" fill="#A12885" points="3.54043415 14.9138716 7.08120712 14.9138716 7.08120712 11.1850172 3.54043415 11.1850172"></polygon>
                        <polygon id="Fill-14" fill="#D99CE1" points="7.08120712 14.9138716 10.6218672 14.9138716 10.6218672 11.1850172 7.08120712 11.1850172"></polygon>
                        <polygon id="Fill-15" fill="#CDE985" points="14.1624142 14.9138716 17.7029613 14.9138716 17.7029613 11.1850172 14.1624142 11.1850172"></polygon>
                        <polygon id="Fill-16" fill="#62BD19" points="17.7029613 14.9138716 21.2435084 14.9138716 21.2435084 11.1850172 17.7029613 11.1850172"></polygon>
                        <polygon id="Fill-17" fill="#373737" points="21.2435084 14.9138716 24.7842814 14.9138716 24.7842814 11.1850172 21.2435084 11.1850172"></polygon>
                    </g>
                    <g id="leltras" transform="translate(0.000000, 3.737961)">
                        <polygon id="Fill-1" fill="#FFFFFF" fill-rule="nonzero" points="8.68922696 6.16375139 6.2306592 13.4893487 6.17754564 13.4893487 3.51191929 6.16375139 1.68614464e-05 6.16375139 4.37252761 16.9532736 7.8164784 16.9532736 11.9584932 6.16375139"></polygon>
                        <path d="M18.157183,14.2898248 C19.7666083,14.2898248 20.7477759,13.1757406 20.7477759,11.5546885 C20.7477759,9.93915078 19.7666083,8.8257781 18.157183,8.8257781 C16.5258379,8.8257781 15.5588339,9.93915078 15.5588339,11.5546885 C15.5588339,13.1757406 16.5258379,14.2898248 18.157183,14.2898248 Z M18.157183,5.9084891 C21.3939066,5.9084891 24.0055764,8.13309985 24.0055764,11.5546885 C24.0055764,14.9974453 21.3939066,17.2085369 18.157183,17.2085369 C14.9015746,17.2085369 12.3084525,14.9974453 12.3084525,11.5546885 C12.3084525,8.13309985 14.9015746,5.9084891 18.157183,5.9084891 Z" id="Fill-2" fill="#FFFFFF" fill-rule="nonzero"></path>
                        <g id="Fill-4-Clipped" transform="translate(0.000000, 0.131741)">
                            <mask id="mask-2" fill="white">
                                <use xlink:href="#path-1"></use>
                            </mask>
                            <g id="path-1"></g>
                            <polygon id="Fill-4" fill="#FFFFFF" fill-rule="nonzero" mask="url(#mask-2)" points="25.8049289 16.821373 29.0465424 16.821373 29.0465424 0.0460718203 25.8049289 0.0460718203"></polygon>
                        </g>
                        <g id="Fill-6-Clipped" transform="translate(0.000000, 0.131741)">
                            <mask id="mask-4" fill="white">
                                <use xlink:href="#path-3"></use>
                            </mask>
                            <g id="path-1"></g>
                            <path d="M36.7441307,8.69405489 C35.1185185,8.69405489 34.1447698,9.80742757 34.1447698,11.4229653 C34.1447698,13.0440174 35.1185185,14.1581016 36.7441307,14.1581016 C38.368394,14.1581016 39.3407937,13.0440174 39.3407937,11.4229653 C39.3407937,9.80742757 38.368394,8.69405489 36.7441307,8.69405489 Z M42.3232467,16.821373 L39.3407937,16.821373 L39.3407937,15.4034638 L39.293413,15.4034638 C38.7899302,16.1687186 37.5430261,17.0768137 36.0706844,17.0768137 C32.9557005,17.0768137 30.8945571,14.7734006 30.8945571,11.521157 C30.8945571,8.51777237 32.7150876,5.77676588 35.7037793,5.77676588 C37.0398805,5.77676588 38.3017913,6.14498468 39.0325664,7.18667031 L39.0797785,7.18667031 L39.0797785,6.03202867 L42.3232467,6.03202867 L42.3232467,16.821373 Z" id="Fill-6" fill="#FFFFFF" fill-rule="nonzero" mask="url(#mask-4)"></path>
                        </g>
                        <g id="Fill-7-Clipped" transform="translate(0.000000, 0.131741)">
                            <mask id="mask-6" fill="white">
                                <use xlink:href="#path-5"></use>
                            </mask>
                            <g id="path-1"></g>
                            <path d="M45.0750687,6.03206425 L48.3396137,6.03206425 L48.3396137,7.76660602 L48.3795754,7.76660602 C49.0710633,6.45044618 49.9852911,5.77662358 51.4083973,5.77662358 C51.7847448,5.77662358 52.1865531,5.79085426 52.4816285,5.88370943 L52.4816285,8.92854089 C52.0324395,8.78765718 51.5825761,8.69409047 51.0981466,8.69409047 C48.6353635,8.69409047 48.3396137,10.1623407 48.3396137,12.3076154 L48.3396137,16.8214086 L45.0750687,16.8214086 L45.0750687,6.03206425 Z" id="Fill-7" fill="#FFFFFF" fill-rule="nonzero" mask="url(#mask-6)"></path>
                        </g>
                        <g id="Fill-8-Clipped" transform="translate(0.000000, 0.131741)">
                            <mask id="mask-8" fill="white">
                                <use xlink:href="#path-7"></use>
                            </mask>
                            <g id="path-1"></g>
                            <polygon id="Fill-8" fill="#FFFFFF" fill-rule="nonzero" mask="url(#mask-8)" points="54.2468198 16.821373 57.4982128 16.821373 57.4982128 6.03202867 54.2468198 6.03202867"></polygon>
                        </g>
                        <g id="Fill-9-Clipped" transform="translate(0.000000, 0.131741)">
                            <mask id="mask-10" fill="white">
                                <use xlink:href="#path-9"></use>
                            </mask>
                            <g id="path-1"></g>
                            <path d="M66.0863554,9.13444101 C65.5690462,8.61075206 64.8040423,8.20713445 64.0238631,8.20713445 C63.4866573,8.20713445 62.8160775,8.54635824 62.8160775,9.18460415 C62.8160775,10.9059825 68.3488245,9.57559203 68.3488245,13.5331436 C68.3488245,16.289626 65.7428877,17.0767603 63.4945822,17.0767603 C61.9510852,17.0767603 60.3794296,16.6930657 59.2844472,15.5311308 L61.1705688,13.5331436 C61.8097863,14.1772597 62.6749472,14.6456269 63.6490331,14.6456269 C64.3749184,14.6456269 65.1464983,14.3558547 65.1464983,13.7891179 C65.1464983,11.9129809 59.6151002,13.4136059 59.6151002,9.4112277 C59.6151002,6.87532087 61.829177,5.77671252 64.0238631,5.77671252 C65.4154384,5.77671252 66.9528652,6.1235853 67.9256022,7.18679483 L66.0863554,9.13444101 Z" id="Fill-9" fill="#FFFFFF" fill-rule="nonzero" mask="url(#mask-10)"></path>
                        </g>
                        <g id="Fill-10-Clipped" transform="translate(0.000000, 0.131741)">
                            <mask id="mask-12" fill="white">
                                <use xlink:href="#path-11"></use>
                            </mask>
                            <g id="path-1"></g>
                            <polygon id="Fill-10" fill="#FFFFFF" fill-rule="nonzero" mask="url(#mask-12)" points="54.2468198 3.41856464 57.4982128 3.41856464 57.4982128 0.0460718203 54.2468198 0.0460718203"></polygon>
                        </g>
                    </g>
                </g>
            </g>
        </g>
    </g>
</svg>